<svg xmlns="http://www.w3.org/2000/svg" xmlns:xlink="http://www.w3.org/1999/xlink" width="100" zoomAndPan="magnify" viewBox="0 0 75 74.999997" height="100" preserveAspectRatio="xMidYMid meet" version="1.0"><path stroke-linecap="butt" transform="matrix(0.000000000000000046, -0.75, 0.75, 0.000000000000000046, 35.999999, 74.999993)" fill="none" stroke-linejoin="miter" d="M 14.999992 2.000002 L 84.999997 2.000002 " stroke="#000000" stroke-width="4" stroke-opacity="1" stroke-miterlimit="4"/><path stroke-linecap="round" transform="matrix(0.000000000000000046, -0.75, 0.75, 0.000000000000000046, 35.999999, 74.999993)" fill="none" stroke-linejoin="round" d="M 1.999991 2.000002 C 1.999991 -1.312498 4.687491 -3.999998 7.999991 -3.999998 C 11.312491 -3.999998 13.999992 -1.312498 13.999992 2.000002 C 13.999992 5.312502 11.312491 8.000003 7.999991 8.000003 C 4.687491 8.000003 1.999991 5.312502 1.999991 2.000002 " stroke="#000000" stroke-width="4" stroke-opacity="1" stroke-miterlimit="4"/><path stroke-linecap="round" transform="matrix(0.000000000000000046, -0.75, 0.75, 0.000000000000000046, 35.999999, 74.999993)" fill="none" stroke-linejoin="round" d="M 97.999999 2.000002 C 97.999999 5.312502 95.312498 8.000003 91.999998 8.000003 C 88.687498 8.000003 85.999998 5.312502 85.999998 2.000002 C 85.999998 -1.312498 88.687498 -3.999998 91.999998 -3.999998 C 95.312498 -3.999998 97.999999 -1.312498 97.999999 2.000002 " stroke="#000000" stroke-width="4" stroke-opacity="1" stroke-miterlimit="4"/></svg>